<svg width="74" height="80" viewBox="0 0 74 80" fill="none" xmlns="http://www.w3.org/2000/svg">
<path fill-rule="evenodd" clip-rule="evenodd" d="M57.0582 0.214882C55.6799 -0.210221 53.9138 -0.0395634 52.6969 1.04244C51.4744 0.00752078 49.7694 -0.219946 48.3661 0.215154C45.165 1.20565 44.1788 4.75532 45.0716 7.43466C45.7901 9.58399 47.3396 11.1719 48.8384 12.2139C49.5908 12.737 50.3447 13.1329 51.0023 13.4004C51.635 13.6577 52.2534 13.8272 52.7163 13.8272C53.1817 13.8272 53.8043 13.6535 54.4386 13.3931C55.0988 13.1221 55.8559 12.7221 56.6101 12.1965C58.1108 11.1506 59.6621 9.56231 60.3596 7.43211C61.251 4.75172 60.2568 1.20474 57.0582 0.214882ZM55.6282 2.928C55.2115 2.88686 54.8391 3.17814 54.7963 3.57859C54.7535 3.97904 55.0565 4.33702 55.4732 4.37816C55.7397 4.40448 55.9201 4.51108 56.0387 4.65524C56.1622 4.80535 56.2586 5.04674 56.2465 5.39402C56.2324 5.79636 56.5604 6.13346 56.9789 6.14696C57.3975 6.16046 57.7482 5.84525 57.7623 5.44292C57.7843 4.81275 57.6114 4.21664 57.2284 3.75101C56.8404 3.27944 56.2769 2.99206 55.6282 2.928ZM60.7874 35.9914C60.7699 42.4116 60.7502 49.6419 56.4483 56.891C40.6081 80.9564 11.5243 59.9102 14.5745 48.209C16.0327 44.3417 20.1253 43.6149 23.1083 44.7783C23.6119 45.0518 24.0877 45.3818 24.5372 45.7501C25.2163 46.448 25.8493 47.2953 26.5176 48.1899C26.654 48.3725 26.7919 48.5571 26.932 48.7428C27.3376 49.3782 27.843 50.0415 28.5536 50.7421C28.7922 51.0067 29.0406 51.267 29.3009 51.5205C29.3614 51.5904 29.4207 51.6548 29.4785 51.7124L29.4897 51.7011C30.2697 52.434 31.1563 53.1022 32.2027 53.6387C33.1794 54.184 34.211 54.5587 35.2431 54.7872C37.744 55.5239 39.8501 55.3185 41.5876 54.567C46.3149 53.0371 49.4122 45.9699 48.7474 38.1771C48.674 33.9997 47.5596 30.3017 45.7315 27.1584C45.7378 27.1591 45.7442 27.1598 45.7505 27.1606C45.6767 27.0445 45.6025 26.9295 45.528 26.8155C44.3593 24.8868 42.9196 23.1734 41.2873 21.6936C34.5356 15.2762 26.4904 14.3987 22.2221 15.1145C-3.08565 17.4327 -7.60198 54.4752 12.9406 71.9143C27.8902 84.6055 59.6882 83.8853 70.6028 58.6953C74.4246 51.3952 74.1799 43.5763 73.7914 31.164V31.1639C73.7485 29.793 73.7038 28.3661 73.6627 26.8777V15.9651C71.0222 15.9247 66.1373 17.0929 63.1095 21.403C62.7925 21.812 62.5009 22.2485 62.2402 22.7137C61.1838 24.0739 60.1505 26.9519 60.8075 33.2719C60.7923 34.1601 60.7899 35.0673 60.7874 35.9914Z" fill="url(#paint0_linear_1288_3434)"/>
<defs>
<linearGradient id="paint0_linear_1288_3434" x1="36.9185" y1="7.4444" x2="36.9978" y2="80.0001" gradientUnits="userSpaceOnUse">
<stop stop-color="#70DBE3"/>
<stop offset="0.335" stop-color="#52ACEE"/>
<stop offset="1" stop-color="#1639F4"/>
</linearGradient>
</defs>
</svg>
